# Blender v2.80 (sub 75) OBJ File: 'arena.blend'
# www.blender.org
mtllib arena.mtl
o Cube
v 84.823463 31.488857 -84.823463
v -84.823463 31.488857 -84.823463
v -0.000000 31.488857 -116.897423
v 84.823463 31.488857 84.823463
v 116.897423 31.488857 0.000000
v -84.823463 31.488857 84.823463
v -0.000000 -0.011144 -0.000000
v -0.000000 -3.511143 -0.000000
v -116.897423 31.488857 0.000000
v -0.000000 -4.153854 0.000000
v -0.000000 31.488857 116.897423
v 140.175995 14.631569 -140.159882
v 111.152107 31.488857 -0.000000
v -0.000000 31.488857 -111.152107
v 80.654533 31.488857 -80.654533
v -111.152107 31.488857 -0.000000
v -80.654533 31.488857 -80.654533
v -0.000000 31.488857 111.152107
v 80.654533 31.488857 80.654533
v -80.654533 31.488857 80.654533
v 111.152107 -0.011144 -0.000000
v -0.000000 -0.011144 -111.152107
v 80.654533 -0.011144 -80.654533
v -111.152107 -0.011144 -0.000000
v -80.654533 -0.011144 -80.654533
v -0.000000 -0.011144 111.152107
v 80.654533 -0.011144 80.654533
v -80.654533 -0.011144 80.654533
v 140.175995 14.631569 140.159882
v 140.175995 -4.153854 -140.159882
v -140.175995 -4.153854 -140.159882
v -0.000000 -4.153854 -140.175995
v 140.175995 -4.153854 140.159882
v 140.175995 -4.153854 0.000000
v -140.175995 -4.153854 140.159882
v -140.175995 -4.153854 0.000000
v -0.000000 -4.153854 140.175995
v 140.175995 14.631569 0.000000
v -0.000000 14.631569 -140.175995
v -140.175995 14.631569 -140.159882
v -140.175995 14.631569 0.000000
v -0.000000 14.631569 140.175995
v -140.175995 14.631569 140.159882
vt 0.268681 0.378387
vt 0.301084 0.313547
vt 0.304283 0.316748
vt 0.273502 0.378576
vt 0.284659 0.115805
vt 0.301123 0.099352
vt 0.365938 0.131795
vt 0.364287 0.195880
vt 0.364388 0.217131
vt 0.365944 0.281186
vt 0.284619 0.297071
vt 0.304323 0.096154
vt 0.366130 0.126974
vt 0.204636 0.036125
vt 0.268722 0.034516
vt 0.183385 0.036010
vt 0.103393 0.115728
vt 0.086928 0.099253
vt 0.119331 0.034413
vt 0.022068 0.131614
vt 0.021882 0.126793
vt 0.083729 0.096052
vt 0.103353 0.296994
vt 0.183376 0.376674
vt 0.119290 0.378284
vt 0.086889 0.313447
vt 0.204627 0.376789
vt 0.273952 0.126505
vt 0.353680 0.206444
vt 0.273917 0.286362
vt 0.194006 0.206400
vt 0.114469 0.378472
vt 0.083689 0.316645
vt 0.022074 0.281005
vt 0.023725 0.216920
vt 0.023624 0.195669
vt 0.806384 0.140760
vt 0.893447 0.333699
vt 0.822964 0.365504
vt 0.735902 0.172565
vt 0.980510 0.590248
vt 0.893447 0.783186
vt 0.822964 0.751381
vt 0.910027 0.558443
vt 0.366604 0.783187
vt 0.279541 0.590248
vt 0.350024 0.558443
vt 0.437087 0.751382
vt 0.453667 0.976125
vt 0.524150 0.944320
vt 0.273543 0.034327
vt 0.366130 0.286007
vt 0.021882 0.285826
vt 0.114510 0.034224
vt 0.630026 0.278441
vt 0.630026 0.558443
vt 0.437087 0.365504
vt 0.630026 0.838444
vt 0.806384 0.976125
vt 0.735902 0.944320
vt 0.279541 0.526638
vt 0.366604 0.333699
vt 0.980510 0.526638
vt 0.453667 0.140760
vt 0.524150 0.172565
vt 0.114095 0.126437
vt 0.194065 0.046725
vt 0.114060 0.286294
vt 0.193947 0.366074
vt 0.034332 0.206355
vn 0.0000 1.0000 0.0000
vn 0.0517 0.9305 -0.3626
vn 0.3626 0.9305 -0.0517
vn -0.0517 0.9305 -0.3626
vn -0.3626 0.9305 -0.0517
vn 0.0517 0.9305 0.3626
vn 0.3626 0.9305 0.0517
vn 0.0000 -1.0000 0.0000
vn -0.0517 0.9305 0.3626
vn -0.3626 0.9305 0.0517
vn -0.3537 0.0000 0.9354
vn 0.9354 0.0000 0.3537
vn -0.3537 0.0000 -0.9354
vn 0.3537 0.0000 -0.9354
vn 0.9354 0.0000 -0.3537
vn -0.9354 0.0000 -0.3537
vn 0.3537 0.0000 0.9354
vn -0.9354 0.0000 0.3537
vn -1.0000 0.0000 0.0000
vn -0.0001 0.0000 1.0000
vn 1.0000 0.0000 0.0000
vn 0.0001 0.0000 1.0000
vn -0.0001 0.0000 -1.0000
vn 0.0001 0.0000 -1.0000
usemtl Material
s off
f 4/1/1 5/2/1 13/3/1 19/4/1
f 39/5/2 3/6/2 1/7/2 12/8/2
f 12/9/3 1/10/3 5/2/3 38/11/3
f 1/7/1 3/6/1 14/12/1 15/13/1
f 39/5/4 40/14/4 2/15/4 3/6/4
f 40/16/5 41/17/5 9/18/5 2/19/5
f 9/18/1 6/20/1 20/21/1 16/22/1
f 42/23/6 29/24/6 4/25/6 11/26/6
f 29/27/7 38/11/7 5/2/7 4/1/7
f 32/28/8 30/29/8 34/30/8 10/31/8
f 11/26/1 4/25/1 19/32/1 18/33/1
f 42/23/9 11/26/9 6/34/9 43/35/9
f 43/36/10 6/20/10 9/18/10 41/17/10
f 15/37/11 14/38/11 22/39/11 23/40/11
f 17/41/12 16/42/12 24/43/12 25/44/12
f 18/45/13 19/46/13 27/47/13 26/48/13
f 20/49/14 18/45/14 26/48/14 28/50/14
f 3/6/1 2/15/1 17/51/1 14/12/1
f 5/2/1 1/10/1 15/52/1 13/3/1
f 6/34/1 11/26/1 18/33/1 20/53/1
f 2/19/1 9/18/1 16/22/1 17/54/1
f 23/55/1 22/39/1 7/56/1 21/57/1
f 25/44/1 24/43/1 7/56/1 22/39/1
f 27/47/1 21/57/1 7/56/1 26/48/1
f 28/58/1 26/48/1 7/56/1 24/43/1
f 16/42/15 20/59/15 28/60/15 24/43/15
f 19/61/16 13/62/16 21/57/16 27/47/16
f 14/38/17 17/63/17 25/44/17 22/39/17
f 13/62/18 15/64/18 23/65/18 21/57/18
f 32/28/8 10/31/8 36/66/8 31/67/8
f 37/68/8 10/31/8 34/30/8 33/69/8
f 35/70/19 43/36/19 41/17/19 36/66/19
f 37/68/20 42/23/20 43/35/20 35/70/20
f 33/69/21 34/30/21 38/11/21 29/27/21
f 37/68/22 33/69/22 29/24/22 42/23/22
f 31/67/19 36/66/19 41/17/19 40/16/19
f 32/28/23 31/67/23 40/14/23 39/5/23
f 30/29/21 12/9/21 38/11/21 34/30/21
f 32/28/24 39/5/24 12/8/24 30/29/24
f 37/68/8 35/70/8 36/66/8 10/31/8
